<?xml version="1.0" standalone="no"?>
<!DOCTYPE svg PUBLIC "-//W3C//DTD SVG 20010904//EN"
 "http://www.w3.org/TR/2001/REC-SVG-20010904/DTD/svg10.dtd">
<svg version="1.0" xmlns="http://www.w3.org/2000/svg"
 width="205.000000pt" height="186.000000pt" viewBox="0 0 205.000000 186.000000"
 preserveAspectRatio="xMidYMid meet">

<g transform="translate(0.000000,186.000000) scale(0.100000,-0.100000)"
fill="#000000" stroke="none">
<path d="M1355 1755 l-61 -65 -225 0 c-195 0 -228 -2 -255 -17 -34 -19 -257
-268 -280 -311 -8 -16 -14 -58 -14 -104 0 -72 1 -77 30 -101 16 -14 39 -28 50
-32 11 -3 20 -11 20 -17 0 -5 -130 -156 -290 -335 -316 -355 -316 -355 -308
-466 3 -45 10 -63 29 -81 23 -23 135 -66 170 -66 10 0 20 -8 23 -18 10 -31 48
-59 113 -82 75 -27 100 -22 148 28 23 22 39 32 42 25 20 -51 121 -103 176 -90
14 4 49 32 78 62 46 48 54 53 68 41 59 -51 127 -59 170 -18 44 41 678 758 690
779 5 11 13 48 17 82 l7 64 121 134 c67 74 126 144 133 156 8 14 12 67 13 143
0 102 -3 125 -17 143 -10 12 -72 42 -138 67 -279 106 -389 144 -418 144 -26 0
-43 -12 -92 -65z m450 -109 c188 -70 175 -57 175 -179 0 -120 8 -105 -145
-276 l-100 -111 -3 45 c-2 31 -8 45 -18 45 -11 0 -14 -23 -14 -125 l0 -124
-32 -38 c-36 -41 -184 -208 -481 -540 -105 -117 -196 -213 -202 -213 -7 0 -29
7 -49 15 -35 15 -36 17 -36 69 l0 54 133 147 c126 140 151 175 128 175 -18 0
-279 -299 -286 -327 -6 -30 -139 -186 -162 -191 -7 -2 -36 4 -63 13 -57 19
-65 35 -58 119 4 53 5 54 181 251 160 179 194 225 169 225 -5 0 -51 -48 -103
-107 -52 -59 -133 -151 -181 -205 -49 -54 -88 -107 -88 -117 0 -11 -28 -52
-62 -91 -70 -81 -76 -82 -170 -41 l-48 20 0 68 c0 48 5 76 17 93 9 14 90 106
179 205 89 99 173 194 188 211 26 32 33 54 18 54 -7 0 -325 -350 -395 -436
-14 -17 -29 -42 -32 -56 -4 -14 -18 -36 -31 -49 l-24 -22 -70 27 -70 28 0 74
0 74 198 223 c174 195 366 410 609 681 67 75 86 106 64 106 -5 0 -62 -61 -127
-135 -130 -147 -127 -145 -208 -111 l-36 15 0 75 c0 70 2 78 32 113 69 80 213
239 228 250 11 9 78 12 238 13 134 0 231 4 243 10 10 6 45 37 77 70 l58 60
114 -43 c63 -24 174 -65 245 -91z"/>
</g>
</svg>
