<?xml version="1.0" standalone="no"?>
<!DOCTYPE svg PUBLIC "-//W3C//DTD SVG 20010904//EN"
 "http://www.w3.org/TR/2001/REC-SVG-20010904/DTD/svg10.dtd">
<svg version="1.0" xmlns="http://www.w3.org/2000/svg"
 width="205.000000pt" height="186.000000pt" viewBox="0 0 205.000000 186.000000"
 preserveAspectRatio="xMidYMid meet">

<g transform="translate(0.000000,186.000000) scale(0.100000,-0.100000)"
fill="#000000" stroke="none">
<path d="M1357 1829 l-68 -6 -128 -126 -128 -127 -292 0 c-238 0 -298 -3 -328
-15 -36 -15 -277 -247 -342 -329 -29 -36 -31 -44 -31 -123 0 -98 7 -114 60
-148 24 -15 40 -33 40 -45 0 -11 13 -35 30 -53 25 -29 30 -43 30 -88 1 -86 15
-141 43 -165 21 -18 25 -31 29 -98 3 -73 5 -79 36 -104 28 -23 32 -33 32 -73
0 -44 15 -69 58 -93 39 -22 611 -206 641 -206 33 0 54 19 328 292 161 161 300
307 308 324 8 18 15 56 15 85 l0 53 157 158 c87 87 161 166 165 175 3 10 7 74
7 141 1 92 -3 132 -14 156 -22 45 -384 403 -415 410 -41 9 -161 12 -233 5z
m401 -231 c101 -101 190 -195 198 -210 17 -33 19 -219 3 -251 -6 -12 -73 -84
-148 -160 l-136 -138 -5 48 c-4 35 -10 49 -22 51 -16 3 -18 -8 -18 -134 l0
-138 -282 -284 c-156 -156 -291 -288 -300 -293 -13 -7 -98 17 -320 91 -167 55
-309 104 -317 109 -12 7 -30 101 -20 101 3 0 119 -38 259 -85 140 -47 260 -85
267 -85 7 0 13 6 13 14 0 10 -96 46 -297 113 l-298 99 -3 73 c-3 64 -1 73 13
67 62 -24 562 -186 573 -186 7 0 12 6 10 13 -2 6 -150 61 -329 121 -178 60
-327 114 -331 120 -10 15 -10 176 0 176 4 0 150 -47 324 -105 174 -58 321
-105 327 -105 6 0 11 6 11 14 0 10 -114 52 -364 136 -232 77 -366 127 -370
136 -3 9 -6 63 -6 121 l0 106 92 93 c58 60 99 94 113 94 11 0 101 -27 200 -60
99 -33 183 -60 188 -60 5 0 7 7 5 17 -4 21 -371 145 -408 137 -28 -6 -184
-154 -206 -196 -8 -15 -14 -55 -14 -93 0 -70 -7 -78 -48 -49 -19 13 -22 24
-22 75 0 33 6 72 14 87 8 15 84 96 168 180 l154 152 382 0 c269 0 383 3 388
11 10 17 -13 26 -57 23 -21 -2 -39 0 -39 5 0 4 51 57 113 119 l114 112 123 0
124 0 184 -182z"/>
<path d="M905 1358 c-2 -7 -5 -70 -7 -140 l-3 -127 -55 -56 c-38 -38 -62 -55
-80 -55 -14 0 -100 25 -190 55 -90 30 -168 51 -172 47 -5 -5 -3 -13 4 -19 17
-14 348 -123 371 -123 22 0 123 94 143 132 17 32 20 283 4 293 -6 3 -12 0 -15
-7z"/>
</g>
</svg>
