<?xml version="1.0" standalone="no"?>
<!DOCTYPE svg PUBLIC "-//W3C//DTD SVG 20010904//EN"
 "http://www.w3.org/TR/2001/REC-SVG-20010904/DTD/svg10.dtd">
<svg version="1.0" xmlns="http://www.w3.org/2000/svg"
 width="205.000000pt" height="186.000000pt" viewBox="0 0 205.000000 186.000000"
 preserveAspectRatio="xMidYMid meet">

<g transform="translate(0.000000,186.000000) scale(0.100000,-0.100000)"
fill="#000000" stroke="none">
<path d="M1425 1826 c-16 -8 -77 -61 -134 -120 l-104 -106 -156 0 c-130 0
-162 -3 -188 -17 -33 -19 -263 -257 -285 -296 -7 -12 -15 -53 -18 -92 l-5 -70
-232 -81 c-128 -44 -242 -89 -253 -99 -18 -16 -20 -31 -20 -122 0 -125 4 -131
120 -167 l81 -26 148 50 c82 28 151 50 154 50 3 0 7 -33 10 -72 3 -40 8 -84
12 -98 6 -22 -8 -40 -110 -147 -124 -131 -135 -150 -135 -244 0 -74 21 -101
102 -128 113 -38 108 -41 272 131 115 121 150 152 169 150 14 -1 80 -23 148
-48 68 -26 146 -49 172 -52 48 -5 49 -4 105 54 276 286 447 473 458 500 8 18
14 52 14 75 0 39 6 48 118 165 170 180 162 166 162 300 0 62 -4 124 -9 138
-15 38 -321 357 -358 372 -42 18 -198 18 -238 0z m327 -143 c57 -60 133 -139
169 -176 l64 -69 4 -84 c6 -145 11 -135 -162 -311 -49 -51 -91 -93 -93 -93 -2
0 -4 18 -4 40 0 29 -4 40 -15 40 -13 0 -15 -20 -15 -121 l0 -120 -129 -137
c-71 -75 -184 -195 -252 -265 l-124 -128 -160 55 c-87 31 -163 60 -167 64 -5
5 5 21 21 36 l29 28 86 -28 c79 -26 106 -28 93 -7 -3 4 -37 19 -76 33 -39 13
-70 28 -69 32 2 4 36 43 77 88 45 50 70 85 64 91 -7 7 -384 -377 -522 -533
-53 -60 -60 -62 -140 -32 l-71 26 0 67 c0 80 1 82 135 221 229 237 411 432
419 450 10 23 -8 50 -33 50 -9 0 -158 -50 -331 -111 l-315 -110 -55 16 c-109
34 -110 35 -110 124 0 53 4 82 13 90 12 10 171 67 687 247 102 35 191 71 200
79 19 19 21 126 3 132 -10 3 -13 -11 -13 -51 0 -44 -4 -57 -19 -66 -23 -12
-331 -120 -343 -120 -4 0 -8 30 -8 66 l0 65 101 107 c56 59 117 123 136 142
l33 35 233 5 c145 3 232 9 232 15 0 6 -19 12 -42 15 l-41 5 97 103 98 102 106
0 105 0 104 -107z m-862 -820 c0 -16 -96 -103 -113 -103 -14 0 -17 -5 -13 -16
4 -11 -16 -39 -67 -91 -92 -95 -107 -93 -107 13 0 100 13 113 160 163 119 41
140 46 140 34z"/>
</g>
</svg>
